<svg xmlns="http://www.w3.org/2000/svg" width="135.5" height="70.834" viewBox="0 0 135.5 70.834">
  <g id="Group_830" data-name="Group 830" transform="translate(2418.836 756.219)">
    <g id="new-logo" transform="translate(-2399.022 -727.236)">
      <path id="Path_43" data-name="Path 43" d="M28.182,40.738a3.538,3.538,0,0,0-1.369-3.091,5.578,5.578,0,0,0-3.482-1.017H20.239V45h2.817a8.037,8.037,0,0,0,1.956-.235,5.217,5.217,0,0,0,1.643-.7,3.424,3.424,0,0,0,1.1-1.33A4.255,4.255,0,0,0,28.182,40.738Zm-.9-11.425a2.955,2.955,0,0,0-1.291-2.7,5.544,5.544,0,0,0-3.208-.861H20.239v7.317h2.543a5.406,5.406,0,0,0,3.169-.9A3.2,3.2,0,0,0,27.282,29.313Zm6.573,11.934a7.63,7.63,0,0,1-.822,3.6,7.418,7.418,0,0,1-2.113,2.543,9.441,9.441,0,0,1-3.013,1.565,12.64,12.64,0,0,1-3.6.509H14.566V21.292h9.547a12.873,12.873,0,0,1,3.208.391,7.758,7.758,0,0,1,2.739,1.252,6.372,6.372,0,0,1,1.878,2.191,6.543,6.543,0,0,1,.7,3.169,6.082,6.082,0,0,1-1.174,3.756A6.459,6.459,0,0,1,28.3,34.243a6.646,6.646,0,0,1,4.069,2.426A7.146,7.146,0,0,1,33.856,41.247Zm5.516,8.217V29.235H44.5V49.464Zm5.791-26.02a2.436,2.436,0,0,1-.274,1.174,3.047,3.047,0,0,1-.743.9,3.694,3.694,0,0,1-1.056.548,3.347,3.347,0,0,1-1.135.2,3.815,3.815,0,0,1-2.23-.743,3.049,3.049,0,0,1-.743-.9,2.438,2.438,0,0,1-.274-1.174,2.355,2.355,0,0,1,.274-1.135,2.508,2.508,0,0,1,.743-.9,3.233,3.233,0,0,1,1.056-.587,3.691,3.691,0,0,1,1.174-.2,3.347,3.347,0,0,1,1.135.2,3.233,3.233,0,0,1,1.056.587,2.507,2.507,0,0,1,.743.9A2.354,2.354,0,0,1,45.163,23.444Zm30.7,11.738a3.551,3.551,0,0,0-1.487-1.917,4.479,4.479,0,0,0-2.543-.7,5.284,5.284,0,0,0-2.309.47,4.229,4.229,0,0,0-1.565,1.213A5.489,5.489,0,0,0,66.977,36a9.523,9.523,0,0,0-.391,2.152v.43Zm5.282,6.652a9.719,9.719,0,0,1-1.056,3.482,8.965,8.965,0,0,1-2.074,2.543,9.114,9.114,0,0,1-2.9,1.565,11.194,11.194,0,0,1-3.561.548,10.681,10.681,0,0,1-4.148-.783A10.48,10.48,0,0,1,64.16,47a10.106,10.106,0,0,1-2.074-3.326,11.374,11.374,0,0,1-.743-4.148,11.912,11.912,0,0,1,.743-4.265,10.379,10.379,0,0,1,2.074-3.443,9.755,9.755,0,0,1,3.287-2.269,11.006,11.006,0,0,1,4.3-.822,11.919,11.919,0,0,1,3.365.47,8.4,8.4,0,0,1,2.9,1.448,7.462,7.462,0,0,1,2.113,2.387,8.113,8.113,0,0,1,1.017,3.287L66.664,41.6a6.307,6.307,0,0,0,1.487,3.208,4.525,4.525,0,0,0,3.521,1.33,4.32,4.32,0,0,0,3.13-1.213,4.855,4.855,0,0,0,1.448-3.091Zm24.653,0a9.719,9.719,0,0,1-1.056,3.482,8.967,8.967,0,0,1-2.074,2.543,9.113,9.113,0,0,1-2.9,1.565,11.194,11.194,0,0,1-3.561.548,10.68,10.68,0,0,1-4.147-.783A10.478,10.478,0,0,1,88.813,47a10.1,10.1,0,0,1-2.074-3.326A11.372,11.372,0,0,1,86,39.526a11.909,11.909,0,0,1,.743-4.265,10.377,10.377,0,0,1,2.074-3.443A9.752,9.752,0,0,1,92.1,29.548a11.005,11.005,0,0,1,4.3-.822,11.919,11.919,0,0,1,3.365.47,8.394,8.394,0,0,1,2.9,1.448,7.462,7.462,0,0,1,2.113,2.387,8.171,8.171,0,0,1,1.017,3.326H100.9a4.119,4.119,0,0,0-1.448-2.817,4.488,4.488,0,0,0-2.974-.978,5.25,5.25,0,0,0-2.582.587,4.724,4.724,0,0,0-1.643,1.565,6.786,6.786,0,0,0-.9,2.23,13.986,13.986,0,0,0-.235,2.582,11.151,11.151,0,0,0,.274,2.465,6.92,6.92,0,0,0,.861,2.113,4.509,4.509,0,0,0,4.069,2.035,4.32,4.32,0,0,0,3.13-1.213,4.855,4.855,0,0,0,1.448-3.091Zm19.332,7.63V37.843a9.008,9.008,0,0,0-.2-1.917,4.242,4.242,0,0,0-.665-1.565,3.188,3.188,0,0,0-1.252-1.1,4.01,4.01,0,0,0-1.878-.391,4.507,4.507,0,0,0-2.113.47,4.456,4.456,0,0,0-1.448,1.252,4.814,4.814,0,0,0-.861,1.8,8.094,8.094,0,0,0-.274,2.113V49.464h-5.126V21.292h5.126v11.19a6.686,6.686,0,0,1,2.778-2.856,8.347,8.347,0,0,1,3.991-.9,6.927,6.927,0,0,1,5.126,1.917,6.846,6.846,0,0,1,1.917,5.126V49.464Z" transform="translate(-14.566 -20.627)" fill="#0064d3"/>
    </g>
    <g id="Group_1" data-name="Group 1" transform="translate(-2416.336 -753.719)">
      <path id="Path_47" data-name="Path 47" d="M-2361.568-688.922h-54.768v-49.914h56.185v39.525" transform="translate(2416.336 754.756)" fill="none" stroke="#e2bf2d" stroke-width="5"/>
      <path id="Path_48" data-name="Path 48" d="M-2404.586-736.536s1.614-15.92,15.086-15.92,14.925,15.92,14.925,15.92" transform="translate(2417.155 752.456)" fill="none" stroke="#e2bf2d" stroke-width="5"/>
      <rect id="Rectangle_37" data-name="Rectangle 37" width="9.627" height="4.279" transform="translate(51.704 33.929)" fill="#e2bf2d"/>
    </g>
  </g>
</svg>
