<svg xmlns="http://www.w3.org/2000/svg" width="102" height="52" viewBox="0 0 102 52" fill="none">
<path d="M24.658 35.533C24.658 34.489 24.3197 33.7253 23.643 33.242C22.9857 32.7393 22.1253 32.488 21.062 32.488H18.771V38.694H20.859C21.3617 38.694 21.845 38.636 22.309 38.52C22.773 38.404 23.179 38.23 23.527 37.998C23.875 37.7467 24.1457 37.418 24.339 37.012C24.5517 36.606 24.658 36.113 24.658 35.533ZM23.991 27.065C23.991 26.137 23.672 25.47 23.034 25.064C22.4153 24.6387 21.6227 24.426 20.656 24.426H18.771V29.849H20.656C21.584 29.849 22.367 29.6267 23.005 29.182C23.6623 28.7373 23.991 28.0317 23.991 27.065ZM28.863 35.91C28.863 36.9153 28.66 37.8047 28.254 38.578C27.8673 39.332 27.3453 39.9603 26.688 40.463C26.05 40.9657 25.3057 41.3523 24.455 41.623C23.6043 41.8743 22.715 42 21.787 42H14.566V21.12H21.642C22.4733 21.12 23.266 21.2167 24.02 21.41C24.7933 21.6033 25.47 21.9127 26.05 22.338C26.63 22.7633 27.094 23.3047 27.442 23.962C27.79 24.6 27.964 25.383 27.964 26.311C27.964 27.3937 27.674 28.3217 27.094 29.095C26.514 29.849 25.731 30.3903 24.745 30.719C26.0403 30.9897 27.0457 31.589 27.761 32.517C28.4957 33.445 28.863 34.576 28.863 35.91ZM32.9515 42V27.007H36.7505V42H32.9515ZM37.2435 22.715C37.2435 23.0437 37.1759 23.3337 37.0405 23.585C36.9052 23.8363 36.7215 24.0587 36.4895 24.252C36.2575 24.426 35.9965 24.5613 35.7065 24.658C35.4359 24.7547 35.1555 24.803 34.8655 24.803C34.5755 24.803 34.2855 24.7547 33.9955 24.658C33.7055 24.5613 33.4445 24.426 33.2125 24.252C32.9805 24.0587 32.7969 23.8363 32.6615 23.585C32.5262 23.3337 32.4585 23.0437 32.4585 22.715C32.4585 22.4057 32.5262 22.1253 32.6615 21.874C32.7969 21.6033 32.9805 21.381 33.2125 21.207C33.4445 21.0137 33.7055 20.8687 33.9955 20.772C34.2855 20.6753 34.5755 20.627 34.8655 20.627C35.1555 20.627 35.4359 20.6753 35.7065 20.772C35.9965 20.8687 36.2575 21.0137 36.4895 21.207C36.7215 21.381 36.9052 21.6033 37.0405 21.874C37.1759 22.1253 37.2435 22.4057 37.2435 22.715ZM59.9945 31.415C59.7818 30.7963 59.4145 30.3227 58.8925 29.994C58.3705 29.646 57.7422 29.472 57.0075 29.472C56.3502 29.472 55.7798 29.588 55.2965 29.82C54.8325 30.0327 54.4458 30.3323 54.1365 30.719C53.8272 31.0863 53.5855 31.5213 53.4115 32.024C53.2568 32.5267 53.1602 33.0583 53.1215 33.619V33.938L59.9945 31.415ZM63.9095 36.345C63.7935 37.3117 63.5325 38.172 63.1265 38.926C62.7205 39.6607 62.2082 40.289 61.5895 40.811C60.9708 41.3137 60.2555 41.7003 59.4435 41.971C58.6315 42.2417 57.7518 42.377 56.8045 42.377C55.6832 42.377 54.6585 42.1837 53.7305 41.797C52.8025 41.391 52.0002 40.8497 51.3235 40.173C50.6662 39.477 50.1538 38.6553 49.7865 37.708C49.4192 36.7607 49.2355 35.736 49.2355 34.634C49.2355 33.4933 49.4192 32.4397 49.7865 31.473C50.1538 30.487 50.6662 29.6363 51.3235 28.921C52.0002 28.2057 52.8122 27.645 53.7595 27.239C54.7262 26.833 55.7895 26.63 56.9495 26.63C57.8195 26.63 58.6508 26.746 59.4435 26.978C60.2555 27.21 60.9708 27.5677 61.5895 28.051C62.2275 28.515 62.7495 29.1047 63.1555 29.82C63.5615 30.516 63.8128 31.328 63.9095 32.256L53.1795 36.171C53.3342 37.099 53.7015 37.8917 54.2815 38.549C54.8808 39.2063 55.7508 39.535 56.8915 39.535C57.8195 39.535 58.5928 39.2353 59.2115 38.636C59.8302 38.0367 60.1878 37.273 60.2845 36.345H63.9095ZM82.1818 36.345C82.0658 37.3117 81.8048 38.172 81.3988 38.926C80.9928 39.6607 80.4804 40.289 79.8618 40.811C79.2431 41.3137 78.5278 41.7003 77.7158 41.971C76.9038 42.2417 76.0241 42.377 75.0768 42.377C73.9554 42.377 72.9308 42.1837 72.0028 41.797C71.0748 41.391 70.2724 40.8497 69.5958 40.173C68.9384 39.477 68.4261 38.6553 68.0588 37.708C67.6914 36.7607 67.5078 35.736 67.5078 34.634C67.5078 33.4933 67.6914 32.4397 68.0588 31.473C68.4261 30.487 68.9384 29.6363 69.5958 28.921C70.2724 28.2057 71.0844 27.645 72.0318 27.239C72.9984 26.833 74.0618 26.63 75.2218 26.63C76.0918 26.63 76.9231 26.746 77.7158 26.978C78.5278 27.21 79.2431 27.5677 79.8618 28.051C80.4998 28.515 81.0218 29.1047 81.4278 29.82C81.8338 30.516 82.0851 31.3377 82.1818 32.285H78.5568C78.4408 31.3763 78.0831 30.6803 77.4838 30.197C76.9038 29.7137 76.1691 29.472 75.2798 29.472C74.5258 29.472 73.8878 29.617 73.3658 29.907C72.8631 30.197 72.4571 30.5837 72.1478 31.067C71.8384 31.5503 71.6161 32.1013 71.4808 32.72C71.3648 33.3387 71.3068 33.9767 71.3068 34.634C71.3068 35.2527 71.3744 35.8617 71.5098 36.461C71.6451 37.041 71.8578 37.563 72.1478 38.027C72.4571 38.4717 72.8534 38.839 73.3368 39.129C73.8394 39.3997 74.4484 39.535 75.1638 39.535C76.0918 39.535 76.8651 39.2353 77.4838 38.636C78.1024 38.0367 78.4601 37.273 78.5568 36.345H82.1818ZM96.51 42V33.387C96.51 32.8843 96.4617 32.4107 96.365 31.966C96.2684 31.5213 96.104 31.1347 95.872 30.806C95.64 30.458 95.3307 30.1873 94.944 29.994C94.5767 29.8007 94.1127 29.704 93.552 29.704C92.9527 29.704 92.4307 29.82 91.986 30.052C91.5607 30.284 91.203 30.5933 90.913 30.98C90.623 31.3473 90.4104 31.792 90.275 32.314C90.1397 32.8167 90.072 33.3387 90.072 33.88V42H86.273V21.12H90.072V29.414C90.6134 28.428 91.2997 27.7223 92.131 27.297C92.9624 26.8523 93.9484 26.63 95.089 26.63C96.6744 26.63 97.9407 27.1037 98.888 28.051C99.8354 28.979 100.309 30.2453 100.309 31.85V42H96.51Z" fill="#ffffff"/>
<path d="M45.139 29.443V42H41.34V29.443H39.774V27.007H41.34V23.759L45.139 21.874V27.007H46.705V29.443H45.139Z" fill="#E2BF2D"/>
<path d="M42.4402 49.793H2V13.0291L42.8125 13.2386M11.191 13.0291C11.191 13.0291 11.191 2 22.2201 2C33.2493 2 33.2493 13.0291 33.2493 13.0291" stroke="#E2BF2D" stroke-width="4" stroke-linecap="round" stroke-linejoin="round"/>
<path d="M43.1382 11.2519L43.1382 27.9631" stroke="#E2BF2D" stroke-width="4"/>
<path d="M43.2487 46.5L43.2487 51.7951" stroke="#E2BF2D" stroke-width="3.75"/>
<path d="M39.3516 28.2268H47.1168" stroke="#E2BF2D" stroke-width="2.5"/>
</svg>